<?xml version="1.0" standalone="no"?>
<!DOCTYPE svg PUBLIC "-//W3C//DTD SVG 20010904//EN"
 "http://www.w3.org/TR/2001/REC-SVG-20010904/DTD/svg10.dtd">
<svg version="1.0" xmlns="http://www.w3.org/2000/svg"
 width="770.000000pt" height="433.000000pt" viewBox="0 0 770.000000 433.000000"
 preserveAspectRatio="xMidYMid meet">

<g transform="translate(0.000000,433.000000) scale(0.100000,-0.100000)"
fill="#000000" stroke="none">
<path d="M5813 3033 c-10 -4 -13 -170 -13 -784 l0 -779 115 0 115 0 0 785 0
785 -102 -1 c-57 0 -109 -3 -115 -6z"/>
<path d="M1040 2966 c-283 -60 -509 -271 -582 -545 -29 -109 -29 -306 1 -415
32 -119 94 -227 181 -316 96 -98 171 -146 295 -190 99 -34 102 -35 265 -35
129 0 181 4 240 19 130 33 238 89 323 169 l37 36 0 250 0 251 -125 0 -125 0
-2 -202 -3 -202 -40 -23 c-55 -32 -127 -52 -225 -63 -353 -40 -618 215 -586
567 13 136 59 235 153 324 73 70 155 112 256 133 89 19 138 20 225 6 100 -17
161 -42 249 -106 21 -15 23 -13 82 72 34 48 61 93 61 99 0 30 -167 123 -282
155 -95 28 -304 36 -398 16z"/>
<path d="M2363 2595 c-160 -36 -319 -162 -387 -306 -98 -205 -69 -456 71 -621
122 -143 265 -208 458 -208 148 0 253 33 363 114 315 232 301 718 -26 937 -40
27 -103 58 -140 70 -87 27 -252 34 -339 14z m302 -229 c131 -65 203 -199 193
-360 -9 -142 -78 -249 -197 -305 -49 -23 -69 -26 -156 -26 -89 0 -106 3 -156
28 -69 34 -132 100 -167 175 -36 78 -37 218 -3 304 39 99 133 183 235 209 17
5 68 7 114 5 64 -3 94 -10 137 -30z"/>
<path d="M4843 2595 c-181 -39 -336 -206 -374 -403 -17 -91 -7 -251 21 -327
56 -149 167 -263 304 -311 194 -69 405 -8 525 151 l22 30 -4 -125 c-6 -156
-26 -218 -93 -280 -70 -65 -122 -83 -242 -88 -122 -5 -206 17 -302 79 l-59 38
-55 -87 -54 -87 24 -20 c46 -39 162 -95 240 -116 102 -28 270 -30 363 -6 130
35 256 122 318 220 14 22 37 72 51 111 l27 71 3 573 3 572 -116 0 -115 0 0
-75 c0 -41 -2 -75 -4 -75 -2 0 -27 22 -55 49 -114 107 -258 143 -428 106z
m297 -204 c66 -31 119 -86 154 -161 27 -58 31 -75 30 -150 -1 -108 -28 -182
-88 -244 -60 -62 -114 -87 -200 -93 -143 -11 -248 48 -312 174 -26 53 -29 67
-29 158 0 93 2 105 33 167 39 79 105 142 171 163 65 21 183 14 241 -14z"/>
<path d="M6644 2600 c-60 -13 -157 -54 -206 -88 -66 -45 -153 -144 -182 -206
-44 -93 -59 -177 -53 -306 5 -123 24 -194 74 -279 34 -59 125 -147 194 -188
157 -94 420 -97 603 -7 52 25 147 96 154 115 2 5 -25 40 -59 78 l-63 69 -40
-33 c-89 -71 -187 -101 -312 -93 -163 10 -287 104 -318 241 l-6 27 440 0 440
0 0 123 c0 197 -33 290 -140 397 -65 65 -135 107 -228 136 -56 18 -240 27
-298 14z m280 -229 c91 -45 140 -115 147 -211 l4 -45 -320 0 -320 0 3 39 c16
198 283 317 486 217z"/>
</g>
</svg>
